HIERARCHY
ROOT hip
{
  OFFSET 0 0 0
  CHANNELS 6 Xposition Yposition Zposition Zrotation Yrotation Xrotation
  JOINT abdomen
  {
    OFFSET 0 20.6881 -0.73152
    CHANNELS 3 Zrotation Xrotation Yrotation
    JOINT chest
    {
      OFFSET 0 11.7043 -0.48768
      CHANNELS 3 Zrotation Xrotation Yrotation
      JOINT neck
      {
        OFFSET 0 22.1894 -2.19456
        CHANNELS 3 Zrotation Xrotation Yrotation
        JOINT head
        {
          OFFSET -0.24384 7.07133 1.2192
          CHANNELS 3 Zrotation Xrotation Yrotation
          JOINT leftEye
          {
            OFFSET 4.14528 8.04674 8.04672
            CHANNELS 3 Zrotation Xrotation Yrotation
            End Site
            {
              OFFSET 1 0 0
            }
          }
          JOINT rightEye
          {
            OFFSET -3.6576 8.04674 8.04672
            CHANNELS 3 Zrotation Xrotation Yrotation
            End Site
            {
              OFFSET 1 0 0
            }
          }
        }
      }
      JOINT rCollar
      {
        OFFSET -2.68224 19.2634 -4.8768
        CHANNELS 3 Zrotation Xrotation Yrotation
        JOINT rShldr
        {
          OFFSET -8.77824 -1.95073 1.46304
          CHANNELS 3 Zrotation Xrotation Yrotation
          JOINT rForeArm
          {
            OFFSET -28.1742 -1.7115 0.48768
            CHANNELS 3 Zrotation Xrotation Yrotation
            JOINT rHand
            {
              OFFSET -22.5879 0.773209 7.07136
              CHANNELS 3 Zrotation Xrotation Yrotation
              JOINT rThumb1
              {
                OFFSET -1.2192 -0.487915 3.41376
                CHANNELS 3 Zrotation Xrotation Yrotation
                JOINT rThumb2
                {
                  OFFSET -3.37035 -0.52449 3.41376
                  CHANNELS 3 Zrotation Xrotation Yrotation
                  End Site
                  {
                    OFFSET -1.78271 -1.18214 1.43049
                  }
                }
              }
              JOINT rIndex1
              {
                OFFSET -7.75947 0.938293 5.60832
                CHANNELS 3 Zrotation Xrotation Yrotation
                JOINT rIndex2
                {
                  OFFSET -2.54057 -0.884171 1.56538
                  CHANNELS 3 Zrotation Xrotation Yrotation
                  End Site
                  {
                    OFFSET -1.62519 -0.234802 1.16502
                  }
                }
              }
              JOINT rMid1
              {
                OFFSET -8.24714 1.18213 3.41376
                CHANNELS 3 Zrotation Xrotation Yrotation
                JOINT rMid2
                {
                  OFFSET -3.10165 -0.590103 1.0647
                  CHANNELS 3 Zrotation Xrotation Yrotation
                  End Site
                  {
                    OFFSET -2.48547 -0.328903 0.83742
                  }
                }
              }
              JOINT rRing1
              {
                OFFSET -8.82822 0.546677 1.51678
                CHANNELS 3 Zrotation Xrotation Yrotation
                JOINT rRing2
                {
                  OFFSET -2.60934 -0.819778 -0.0198488
                  CHANNELS 3 Zrotation Xrotation Yrotation
                  End Site
                  {
                    OFFSET -2.33842 -0.294052 0.168128
                  }
                }
              }
              JOINT rPinky1
              {
                OFFSET -8.27202 -0.0477905 -0.4584
                CHANNELS 3 Zrotation Xrotation Yrotation
                JOINT rPinky2
                {
                  OFFSET -1.82734 -0.647385 -0.700984
                  CHANNELS 3 Zrotation Xrotation Yrotation
                  End Site
                  {
                    OFFSET -1.69225 -0.51767 -0.607171
                  }
                }
              }
            }
          }
        }
      }
      JOINT lCollar
      {
        OFFSET 2.68224 19.2634 -4.8768
        CHANNELS 3 Zrotation Xrotation Yrotation
        JOINT lShldr
        {
          OFFSET 8.77824 -1.95073 1.46304
          CHANNELS 3 Zrotation Xrotation Yrotation
          JOINT lForeArm
          {
            OFFSET 28.1742 -1.7115 0.48768
            CHANNELS 3 Zrotation Xrotation Yrotation
            JOINT lHand
            {
              OFFSET 22.5879 0.773209 7.07136
              CHANNELS 3 Zrotation Xrotation Yrotation
              JOINT lThumb1
              {
                OFFSET 1.2192 -0.487915 3.41376
                CHANNELS 3 Zrotation Xrotation Yrotation
                JOINT lThumb2
                {
                  OFFSET 3.37035 -0.52449 3.41376
                  CHANNELS 3 Zrotation Xrotation Yrotation
                  End Site
                  {
                    OFFSET 1.78271 -1.18214 1.43049
                  }
                }
              }
              JOINT lIndex1
              {
                OFFSET 7.75947 0.938293 5.60832
                CHANNELS 3 Zrotation Xrotation Yrotation
                JOINT lIndex2
                {
                  OFFSET 2.54057 -0.884171 1.56538
                  CHANNELS 3 Zrotation Xrotation Yrotation
                  End Site
                  {
                    OFFSET 1.62519 -0.234802 1.16502
                  }
                }
              }
              JOINT lMid1
              {
                OFFSET 8.24714 1.18213 3.41376
                CHANNELS 3 Zrotation Xrotation Yrotation
                JOINT lMid2
                {
                  OFFSET 3.10165 -0.590103 1.0647
                  CHANNELS 3 Zrotation Xrotation Yrotation
                  End Site
                  {
                    OFFSET 2.48547 -0.328903 0.83742
                  }
                }
              }
              JOINT lRing1
              {
                OFFSET 8.82822 0.546677 1.51678
                CHANNELS 3 Zrotation Xrotation Yrotation
                JOINT lRing2
                {
                  OFFSET 2.60934 -0.819778 -0.0198488
                  CHANNELS 3 Zrotation Xrotation Yrotation
                  End Site
                  {
                    OFFSET 2.33842 -0.294052 0.168128
                  }
                }
              }
              JOINT lPinky1
              {
                OFFSET 8.27202 -0.0477905 -0.4584
                CHANNELS 3 Zrotation Xrotation Yrotation
                JOINT lPinky2
                {
                  OFFSET 1.82734 -0.647385 -0.700984
                  CHANNELS 3 Zrotation Xrotation Yrotation
                  End Site
                  {
                    OFFSET 1.69225 -0.51767 -0.607171
                  }
                }
              }
            }
          }
        }
      }
    }
  }
  JOINT rButtock
  {
    OFFSET -8.77824 4.35084 1.2192
    CHANNELS 3 Zrotation Xrotation Yrotation
    JOINT rThigh
    {
      OFFSET 0 -1.70687 -2.19456
      CHANNELS 3 Zrotation Xrotation Yrotation
      JOINT rShin
      {
        OFFSET 0 -36.8199 0.73152
        CHANNELS 3 Zrotation Xrotation Yrotation
        JOINT rFoot
        {
          OFFSET 0.73152 -45.1104 -5.12064
          CHANNELS 3 Zrotation Xrotation Yrotation
          End Site
          {
            OFFSET -1.1221 -3.69964 12.103
          }
        }
      }
    }
  }
  JOINT lButtock
  {
    OFFSET 8.77824 4.35084 1.2192
    CHANNELS 3 Zrotation Xrotation Yrotation
    JOINT lThigh
    {
      OFFSET 0 -1.70687 -2.19456
      CHANNELS 3 Zrotation Xrotation Yrotation
      JOINT lShin
      {
        OFFSET 0 -36.8199 0.73152
        CHANNELS 3 Zrotation Xrotation Yrotation
        JOINT lFoot
        {
          OFFSET -0.73152 -45.1104 -5.12064
          CHANNELS 3 Zrotation Xrotation Yrotation
          End Site
          {
            OFFSET 1.1221 -3.69964 12.103
          }
        }
      }
    }
  }
}
MOTION
Frames:	9
Frame Time:	0.00833333
25.5313 84.8814 20.2424 -178.625 -44.6811 -171.619 -4.68349 -6.28806 1.00021 2.73367 -14.0012 0.356549 -3.00116 0.657901 -5.48942 14.6453 19.873 -17.3292 -0.0 0.0 0.0 -0.0 0.0 0.0 9.77262e-14 -6.51058e-15 -4.0257e-14 6.21837 -3.4527 12.3507 -28.2503 -39.0322 82.0774 -2.07088 36.9021 6.06103 -1.287e-09 9.51562e-10 7.10499e-10 -2.2169e-09 1.63447e-09 1.24685e-09 -1.28699e-09 9.51562e-10 7.1047e-10 7.73091 5.47488 0.417314 -1.287e-09 9.51562e-10 7.105e-10 2.90554 0.965183 0.102902 -1.28699e-09 9.51563e-10 7.10501e-10 10.2786 0.731801 0.0259123 -1.28701e-09 9.51565e-10 7.10509e-10 2.22167 -0.733487 -0.20892 9.77135e-14 -6.50985e-15 -4.05428e-14 -80.0591 7.48261 18.3042 15.8271 -8.5274 -29.3087 0.184138 12.1373 -1.73202 1.64499e-09 2.57614e-09 4.03119e-10 2.84903e-09 4.46242e-09 6.76415e-10 1.64498e-09 2.57614e-09 4.03125e-10 -7.73091 5.47488 -0.417314 1.64499e-09 2.57614e-09 4.03118e-10 -2.90554 0.965183 -0.102902 1.64499e-09 2.57614e-09 4.03121e-10 -10.2786 0.731801 -0.0259123 1.64499e-09 2.57614e-09 4.03119e-10 -2.22167 -0.733487 0.20892 -2.03217e-16 0.0 -3.88251e-19 1.14396 -2.74716 13.5229 0.0235699 5.02401 0.237857 -24.9216 -38.1606 -36.3941 2.03217e-16 0.0 3.88251e-19 -6.79682 -3.1503 -39.9166 -0.01337 -4.6083 -0.0623087 6.82871 -9.81527 29.1552
25.7857 84.8985 20.1122 -178.551 -44.9646 -171.707 -4.70197 -6.32878 0.94017 2.82936 -14.1153 0.350646 -2.99035 1.04327 -5.48434 14.8172 19.7011 -17.3997 -0.0 0.0 0.0 -0.0 0.0 0.0 1.01289e-14 -1.78043e-13 -4.89414e-13 8.69955 -8.11206 12.5696 -28.3268 -38.2592 80.7758 -1.55012 32.3966 5.12699 -2.87493e-09 2.15311e-09 2.80635e-09 -4.91194e-09 3.72118e-09 4.89501e-09 -2.87492e-09 2.15311e-09 2.80633e-09 7.73091 5.47488 0.417314 -2.87493e-09 2.15311e-09 2.80636e-09 2.90554 0.965183 0.102902 -2.87492e-09 2.15311e-09 2.80636e-09 10.2786 0.731801 0.0259123 -2.87493e-09 2.15312e-09 2.80637e-09 2.22167 -0.733487 -0.20892 1.01094e-14 -1.78043e-13 -4.89684e-13 -80.0363 7.49552 18.4953 15.8113 -8.51299 -29.2754 0.180635 12.0234 -1.71527 3.18973e-09 3.12535e-09 -1.12762e-09 5.50327e-09 5.41442e-09 -1.98992e-09 3.18973e-09 3.12535e-09 -1.12761e-09 -7.73091 5.47488 -0.417314 3.18973e-09 3.12535e-09 -1.12762e-09 -2.90554 0.965183 -0.102902 3.18973e-09 3.12535e-09 -1.12762e-09 -10.2786 0.731801 -0.0259123 3.18973e-09 3.12535e-09 -1.12762e-09 -2.22167 -0.733487 0.20892 -2.03217e-16 0.0 -3.88251e-19 1.37503 -2.91995 13.1449 0.0254602 5.39582 0.249974 -24.2042 -37.5759 -35.7949 2.03217e-16 0.0 3.88251e-19 -6.46839 -3.16659 -39.9612 -0.0122784 -4.66111 -0.0600026 6.51015 -9.11003 29.141
25.9979 84.928 19.9669 -178.578 -45.2232 -171.794 -4.64618 -6.34386 0.909848 2.88835 -14.1946 0.349496 -2.98824 1.29218 -5.4758 14.9526 19.6312 -17.4501 -0.0 0.0 0.0 -0.0 0.0 0.0 -5.24652e-14 -2.74323e-13 -7.56922e-13 11.1902 -12.4365 13.1694 -28.3644 -37.6004 79.72 -0.988669 27.0299 4.11172 -3.6558e-09 2.7528e-09 4.02811e-09 -6.23512e-09 4.76394e-09 7.01963e-09 -3.6558e-09 2.7528e-09 4.02809e-09 7.73091 5.47488 0.417314 -3.6558e-09 2.7528e-09 4.02812e-09 2.90554 0.965183 0.102902 -3.6558e-09 2.7528e-09 4.02811e-09 10.2786 0.731801 0.0259123 -3.65581e-09 2.7528e-09 4.02812e-09 2.22167 -0.733487 -0.20892 -5.24966e-14 -2.74323e-13 -7.57171e-13 -79.9869 7.46171 18.6237 15.7899 -8.49343 -29.2303 0.178893 11.9658 -1.70682 3.98414e-09 3.24361e-09 -2.12367e-09 6.86601e-09 5.61968e-09 -3.72235e-09 3.98414e-09 3.24361e-09 -2.12366e-09 -7.73091 5.47488 -0.417314 3.98414e-09 3.24361e-09 -2.12368e-09 -2.90554 0.965183 -0.102902 3.98414e-09 3.24361e-09 -2.12367e-09 -10.2786 0.731801 -0.0259123 3.98415e-09 3.24361e-09 -2.12367e-09 -2.22167 -0.733487 0.20892 -2.03217e-16 0.0 -3.88251e-19 1.66185 -3.07299 12.8878 0.0266844 5.74906 0.258259 -23.5902 -36.9994 -35.3344 2.03217e-16 0.0 3.88251e-19 -6.10242 -3.16417 -40.0864 -0.0121119 -4.69531 -0.0621472 6.37283 -8.74306 29.1609
26.2798 84.9636 19.792 -178.294 -45.4798 -172.095 -4.48753 -6.31784 0.916817 2.88968 -14.2253 0.353151 -2.99955 1.33592 -5.4617 15.0748 19.7156 -17.481 -0.0 0.0 0.0 -0.0 0.0 0.0 -6.87419e-14 -2.52577e-13 -7.06017e-13 13.8981 -16.5853 14.3475 -28.3914 -37.0603 78.8251 -0.401473 20.1906 2.93099 -3.33236e-09 2.63971e-09 3.81909e-09 -5.68252e-09 4.57028e-09 6.65064e-09 -3.33235e-09 2.63971e-09 3.81908e-09 7.73091 5.47488 0.417314 -3.33236e-09 2.63971e-09 3.8191e-09 2.90554 0.965183 0.102902 -3.33235e-09 2.63971e-09 3.81909e-09 10.2786 0.731801 0.0259123 -3.33237e-09 2.63971e-09 3.8191e-09 2.22167 -0.733487 -0.20892 -6.87914e-14 -2.52573e-13 -7.06229e-13 -79.8918 7.37384 18.6567 15.7687 -8.47396 -29.1862 0.179167 11.9739 -1.70802 3.31439e-09 2.49107e-09 -2.23602e-09 5.70709e-09 4.31598e-09 -3.90826e-09 3.31439e-09 2.49107e-09 -2.23601e-09 -7.73091 5.47488 -0.417314 3.31439e-09 2.49107e-09 -2.23602e-09 -2.90554 0.965183 -0.102902 3.31439e-09 2.49107e-09 -2.23602e-09 -10.2786 0.731801 -0.0259123 3.3144e-09 2.49108e-09 -2.23601e-09 -2.22167 -0.733487 0.20892 -2.03217e-16 0.0 -3.88251e-19 2.02106 -3.23556 12.7539 0.0275081 6.132 0.263841 -23.0392 -36.3713 -35.0013 2.03217e-16 0.0 3.88251e-19 -5.6788 -3.14219 -40.3258 -0.0133036 -4.70105 -0.0712275 6.50663 -8.8913 29.1894
26.6038 84.974 19.6322 -177.907 -45.7131 -172.43 -4.26143 -6.26902 0.946335 2.85711 -14.2326 0.359652 -3.02109 1.25963 -5.43724 15.1768 19.91 -17.489 -0.0 0.0 0.0 -0.0 0.0 0.0 -6.74088e-14 -1.54113e-13 -4.84795e-13 17.1496 -20.8434 16.0755 -28.413 -36.5728 77.9948 0.000730496 11.8959 1.65526 -2.37319e-09 2.12152e-09 2.81635e-09 -4.04915e-09 3.67353e-09 4.89767e-09 -2.37318e-09 2.12151e-09 2.81633e-09 7.73091 5.47488 0.417314 -2.37319e-09 2.12151e-09 2.81635e-09 2.90554 0.965183 0.102902 -2.37318e-09 2.12151e-09 2.81635e-09 10.2786 0.731801 0.0259123 -2.3732e-09 2.12151e-09 2.81636e-09 2.22167 -0.733487 -0.20892 -6.74835e-14 -1.54103e-13 -4.8496e-13 -79.7717 7.24693 18.642 15.7431 -8.45032 -29.133 0.180455 12.0148 -1.71404 1.82585e-09 1.21453e-09 -1.84904e-09 3.13795e-09 2.10427e-09 -3.22033e-09 1.82585e-09 1.21454e-09 -1.84902e-09 -7.73091 5.47488 -0.417314 1.82585e-09 1.21454e-09 -1.84904e-09 -2.90554 0.965183 -0.102902 1.82584e-09 1.21454e-09 -1.84903e-09 -10.2786 0.731801 -0.0259123 1.82585e-09 1.21454e-09 -1.84903e-09 -2.22167 -0.733487 0.20892 -2.03217e-16 0.0 -3.88251e-19 2.43314 -3.39481 12.7315 0.0282459 6.52929 0.267645 -22.5372 -35.7219 -34.7575 2.03217e-16 0.0 3.88251e-19 -5.21959 -3.11184 -40.6409 -0.0153504 -4.67765 -0.0847913 6.81681 -9.37423 29.2306
26.886 84.9682 19.4741 -177.681 -45.8744 -172.639 -4.00557 -6.21844 0.992433 2.82006 -14.2287 0.370363 -3.04443 1.15402 -5.41027 15.2121 20.1299 -17.4754 -0.0 0.0 0.0 -0.0 0.0 0.0 -7.4892e-14 -4.41945e-14 -2.89908e-13 20.5214 -24.5536 17.9947 -28.425 -36.2243 77.3972 0.0982771 3.4986 0.467376 -1.09571e-09 1.21703e-09 1.79461e-09 -1.87261e-09 2.10677e-09 3.11114e-09 -1.0957e-09 1.21703e-09 1.7946e-09 7.73091 5.47488 0.417314 -1.09571e-09 1.21702e-09 1.79461e-09 2.90554 0.965183 0.102902 -1.0957e-09 1.21702e-09 1.79461e-09 10.2786 0.731801 0.0259123 -1.09572e-09 1.21702e-09 1.79462e-09 2.22167 -0.733487 -0.20892 -7.49959e-14 -4.41784e-14 -2.9003e-13 -79.6536 7.08643 18.6177 15.7031 -8.41381 -29.0492 0.182841 12.0925 -1.72546 6.40613e-10 1.43565e-10 -1.45975e-09 1.09285e-09 2.48873e-10 -2.53245e-09 6.40614e-10 1.43571e-10 -1.45974e-09 -7.73091 5.47488 -0.417314 6.40612e-10 1.4357e-10 -1.45975e-09 -2.90554 0.965183 -0.102902 6.40608e-10 1.43569e-10 -1.45975e-09 -10.2786 0.731801 -0.0259123 6.40614e-10 1.43571e-10 -1.45975e-09 -2.22167 -0.733487 0.20892 -2.03217e-16 0.0 -3.88251e-19 2.87962 -3.4937 12.8241 0.0283602 6.84386 0.266396 -22.165 -35.1749 -34.6427 2.03217e-16 0.0 3.88251e-19 -4.7528 -3.06692 -40.985 -0.0176509 -4.64776 -0.0990859 7.1738 -9.92768 29.3333
27.1522 84.9699 19.2912 -177.591 -45.964 -172.796 -3.75762 -6.18715 1.04915 2.80794 -14.2258 0.386649 -3.06132 1.10978 -5.38861 15.1341 20.2908 -17.4415 -0.0 0.0 0.0 -0.0 0.0 0.0 -1.17617e-13 1.19174e-14 -3.18006e-13 23.38 -27.1191 19.6209 -28.4298 -36.1086 77.1912 -0.0162739 -3.63958 -0.512206 1.82683e-10 -5.49345e-11 1.5286e-09 3.09532e-10 -9.69306e-11 2.64151e-09 1.82697e-10 -5.49409e-11 1.52859e-09 7.73091 5.47488 0.417314 1.82685e-10 -5.4946e-11 1.5286e-09 2.90554 0.965183 0.102902 1.82695e-10 -5.49469e-11 1.5286e-09 10.2786 0.731801 0.0259123 1.82677e-10 -5.49465e-11 1.52861e-09 2.22167 -0.733487 -0.20892 -1.17752e-13 1.1936e-14 -3.18105e-13 -79.5643 6.89792 18.6217 15.6385 -8.35562 -28.9131 0.186434 12.2107 -1.74284 8.80795e-10 7.72875e-12 -1.56518e-09 1.50605e-09 1.40803e-11 -2.71848e-09 8.80796e-10 7.73471e-12 -1.56516e-09 -7.73091 5.47488 -0.417314 8.80794e-10 7.73322e-12 -1.56517e-09 -2.90554 0.965183 -0.102902 8.80788e-10 7.73233e-12 -1.56517e-09 -10.2786 0.731801 -0.0259123 8.80796e-10 7.73352e-12 -1.56518e-09 -2.22167 -0.733487 0.20892 -2.03217e-16 0.0 -3.88251e-19 3.34118 -3.47533 13.0351 0.0273492 6.97861 0.256809 -22.0015 -34.8537 -34.6922 2.03217e-16 0.0 3.88251e-19 -4.30633 -3.00143 -41.3114 -0.0196297 -4.63402 -0.110361 7.44842 -10.2868 29.5418
27.4189 84.979 19.1081 -177.61 -46.011 -172.948 -3.52414 -6.17871 1.1094 2.85022 -14.2266 0.410319 -3.07039 1.16116 -5.37767 14.8743 20.3683 -17.381 -0.0 0.0 0.0 -0.0 0.0 0.0 -2.3289e-13 -2.45148e-14 -7.60862e-13 25.5801 -28.5683 20.8735 -28.4288 -36.3128 77.5185 -0.175577 -10.1344 -1.41996 1.71443e-09 -2.25146e-09 2.60236e-09 2.93127e-09 -3.90297e-09 4.50521e-09 1.71444e-09 -2.25146e-09 2.60235e-09 7.73091 5.47488 0.417314 1.71443e-09 -2.25147e-09 2.60237e-09 2.90554 0.965183 0.102902 1.71444e-09 -2.25147e-09 2.60236e-09 10.2786 0.731801 0.0259123 1.71442e-09 -2.25147e-09 2.60237e-09 2.22167 -0.733487 -0.20892 -2.33066e-13 -2.44989e-14 -7.60975e-13 -79.5193 6.65011 18.6617 15.5323 -8.26055 -28.6894 0.192416 12.4058 -1.77154 3.75798e-09 1.53063e-09 -2.63266e-09 6.46649e-09 2.65408e-09 -4.60234e-09 3.75798e-09 1.53064e-09 -2.63265e-09 -7.73091 5.47488 -0.417314 3.75798e-09 1.53064e-09 -2.63265e-09 -2.90554 0.965183 -0.102902 3.75797e-09 1.53064e-09 -2.63265e-09 -10.2786 0.731801 -0.0259123 3.75798e-09 1.53064e-09 -2.63266e-09 -2.22167 -0.733487 0.20892 -2.03217e-16 0.0 -3.88251e-19 3.80162 -3.31539 13.3221 0.0243142 6.88106 0.237344 -22.0347 -34.7684 -34.8886 2.03217e-16 0.0 3.88251e-19 -3.88131 -2.90323 -41.6172 -0.0213404 -4.64868 -0.117512 7.60139 -10.3691 29.8829
27.7269 84.9849 18.8875 -177.425 -45.9977 -173.233 -3.28618 -6.18257 1.17819 2.924 -14.2248 0.440163 -3.07579 1.25644 -5.37217 14.476 20.4078 -17.2952 -0.0 0.0 0.0 -0.0 0.0 0.0 -3.96531e-13 -1.11573e-13 -1.46715e-12 27.29 -29.1985 21.8823 -28.4166 -36.7629 78.2668 -0.405326 -16.3745 -2.34839 3.55644e-09 -5.1952e-09 4.47689e-09 6.08686e-09 -9.00425e-09 7.76325e-09 3.55645e-09 -5.19521e-09 4.47689e-09 7.73091 5.47488 0.417314 3.55644e-09 -5.19521e-09 4.4769e-09 2.90554 0.965183 0.102902 3.55646e-09 -5.19521e-09 4.47689e-09 10.2786 0.731801 0.0259123 3.55644e-09 -5.19521e-09 4.4769e-09 2.22167 -0.733487 -0.20892 -3.96758e-13 -1.11564e-13 -1.4673e-12 -79.5011 6.35109 18.7186 15.3935 -8.13687 -28.3998 0.200604 12.6639 -1.8096 8.36959e-09 4.14683e-09 -4.28551e-09 1.44182e-08 7.18889e-09 -7.52101e-09 8.36959e-09 4.14683e-09 -4.28551e-09 -7.73091 5.47488 -0.417314 8.36959e-09 4.14683e-09 -4.28551e-09 -2.90554 0.965183 -0.102902 8.36959e-09 4.14683e-09 -4.28551e-09 -10.2786 0.731801 -0.0259123 8.3696e-09 4.14683e-09 -4.28551e-09 -2.22167 -0.733487 0.20892 -2.03217e-16 0.0 -3.88251e-19 4.27213 -3.04783 13.6977 0.019574 6.61183 0.209996 -22.232 -34.8597 -35.2182 2.03217e-16 0.0 3.88251e-19 -3.46426 -2.77967 -41.9245 -0.0230301 -4.67759 -0.122577 7.70197 -10.3198 30.3267
